<svg
    id="Layer_3"
    enable-background="new 0 0 64 64"
    height="260"
    viewBox="0 0 64 64"
    width="260"
    xmlns="http://www.w3.org/2000/svg"
  >
    <defs>
      <linearGradient id="grad2" x1="0%" y1="0%" x2="100%" y2="100%">
        <stop offset="0%" style="stop-color:rgb(0,0,0);stop-opacity:1" />
        <stop offset="100%" style="stop-color:gray;stop-opacity:1" />
      </linearGradient>
    </defs>
    <g>
      <path
        stroke="#F9A602"
        fill="url(#grad2)"
        shape-rendering="geometricPrecision"
        d="m27 16c0 .867.235 1.704.653 2.447l4.02-1.391c.017-.006.035-.005.052-.01.046-.013.092-.021.14-.027.045-.006.089-.012.135-.012s.089.006.135.012c.048.007.094.014.14.027.017.005.035.004.052.01l4.02 1.391c.418-.743.653-1.58.653-2.447 0-2.757-2.243-5-5-5s-5 2.243-5 5z"
      />
      <path
        stroke="#F9A602"
        fill="url(#grad2)"
        shape-rendering="geometricPrecision"
        d="m42 33.32-7.06-9.883 4.692 13.554c.49 1.414 1.32 2.636 2.368 3.609z"
      />
      <path
        stroke="#F9A602"
        fill="url(#grad2)"
        shape-rendering="geometricPrecision"
        d="m35.967 21.433 13.269 8.53 6.28-.785c-1.058-1.61-2.617-2.886-4.525-3.546l-15.975-5.529z"
      />
      <path
        stroke="#F9A602"
        fill="url(#grad2)"
        shape-rendering="geometricPrecision"
        d="m26.827 36h10.346l-1.731-5h-6.884z"
      />
      <path
        stroke="#F9A602"
        fill="url(#grad2)"
        shape-rendering="geometricPrecision"
        d="m29.25 29h5.5l-2.75-7.943z"
      />
      <path
        stroke="#F9A602"
        fill="url(#grad2)"
        shape-rendering="geometricPrecision"
        d="m32.901 43c2.687 0 5.382-.228 8.038-.656-1.337-1.151-2.398-2.631-3.058-4.344h-11.762c-.658 1.706-1.713 3.181-3.042 4.33 2.698.443 5.451.67 8.185.67z"
      />
      <path
        stroke="#F9A602"
        fill="url(#grad2)"
        shape-rendering="geometricPrecision"
        d="m22 40.6c1.049-.974 1.879-2.195 2.368-3.609l4.692-13.554-7.06 9.883z"
      />
      <path
        stroke="#F9A602"
        fill="url(#grad2)"
        shape-rendering="geometricPrecision"
        d="m52.414 33h4.501c-.081-.664-.23-1.308-.451-1.925l-5.312.664z"
      />
      <path
        stroke="#F9A602"
        fill="url(#grad2)"
        shape-rendering="geometricPrecision"
        d="m31.262 45c-2.883 0-5.787-.24-8.63-.714l-.714-.119c.5 1.873 1.185 3.554 2.005 5.011 2.361.537 4.778.822 7.2.822h1.754c2.422 0 4.839-.285 7.201-.822.819-1.454 1.503-3.133 2.003-5.003-3.028.538-6.108.825-9.18.825z"
      />
      <path
        stroke="#F9A602"
        fill="url(#grad2)"
        shape-rendering="geometricPrecision"
        d="m31.123 52c-1.875 0-3.747-.168-5.597-.472 1.84 2.202 4.09 3.472 6.474 3.472s4.634-1.27 6.474-3.472c-1.85.304-3.722.472-5.597.472z"
      />
      <path
        stroke="#F9A602"
        fill="url(#grad2)"
        shape-rendering="geometricPrecision"
        d="m44 42.012c.628.322 1.303.55 2 .717v-4.229l-2-1.5z"
      />
      <path
        stroke="#F9A602"
        fill="url(#grad2)"
        shape-rendering="geometricPrecision"
        d="m48 42.994c.024 0 .047.006.07.006 3.102 0 5.838-1.592 7.439-4h-7.509z"
      />
      <path
        stroke="#F9A602"
        fill="url(#grad2)"
        shape-rendering="geometricPrecision"
        d="m30.177 56.794 1.823 3.19 1.823-3.19c-.598.128-1.205.206-1.823.206s-1.225-.078-1.823-.206z"
      />
      <path
        stroke="#F9A602"
        fill="url(#grad2)"
        shape-rendering="geometricPrecision"
        d="m52 35c-.265 0-.52-.105-.707-.293l-2.924-2.924-9.263-5.954 4.707 6.59c.122.169.187.373.187.581v1.5l3.333 2.5h9.163c.223-.638.383-1.306.455-2z"
      />
      <path
        stroke="#F9A602"
        fill="url(#grad2)"
        shape-rendering="geometricPrecision"
        d="m28.033 21.433.95-1.33-15.975 5.529c-1.908.66-3.467 1.936-4.525 3.546l6.28.785z"
      />
      <path
        stroke="#F9A602"
        fill="url(#grad2)"
        shape-rendering="geometricPrecision"
        d="m12.847 31.739-5.312-.664c-.221.617-.37 1.261-.451 1.925h4.501z"
      />
      <path
        stroke="#F9A602"
        fill="url(#grad2)"
        shape-rendering="geometricPrecision"
        d="m15.93 43c.024 0 .047-.005.07-.006v-3.994h-7.509c1.601 2.408 4.336 4 7.439 4z"
      />
      <path
        stroke="#F9A602"
        fill="url(#grad2)"
        shape-rendering="geometricPrecision"
        d="m15.631 31.783-2.924 2.924c-.187.188-.442.293-.707.293h-4.951c.072.694.232 1.362.455 2h9.163l3.333-2.5v-1.5c0-.208.065-.412.186-.581l4.707-6.59z"
      />
      <path
        stroke="#F9A602"
        fill="url(#grad2)"
        shape-rendering="geometricPrecision"
        d="m18 42.729c.697-.167 1.372-.395 2-.717v-5.012l-2 1.5z"
      />
      <path
        stroke="#F9A602"
        fill="url(#grad2)"
        shape-rendering="geometricPrecision"
        d="m20 7c1.282 0 2.37-.812 2.799-1.945 2.85.258 5.36 1.878 6.772 4.388.647-.24 1.337-.387 2.057-.425l-.05-.099c-1.7-3.399-5.003-5.574-8.744-5.862-.398-1.19-1.511-2.057-2.834-2.057-1.654 0-3 1.346-3 3s1.346 3 3 3z"
      />
      <path
        stroke="#F9A602"
        fill="url(#grad2)"
        shape-rendering="geometricPrecision"
        d="m41.202 5.055c.428 1.133 1.516 1.945 2.798 1.945 1.654 0 3-1.346 3-3s-1.346-3-3-3c-1.323 0-2.436.867-2.834 2.058-3.741.288-7.044 2.462-8.743 5.862l-.05.099c.72.038 1.41.184 2.057.425 1.411-2.511 3.922-4.13 6.772-4.389z"
      />
    </g>
  </svg>